<svg width="3969" height="1270" xmlns="http://www.w3.org/2000/svg" xmlns:xlink="http://www.w3.org/1999/xlink" xml:space="preserve" overflow="hidden"><defs><clipPath id="clip0"><rect x="215" y="343" width="3969" height="1270"/></clipPath></defs><g clip-path="url(#clip0)" transform="translate(-215 -343)"><path d="M218 857.364C218 833.967 236.967 815 260.364 815L660.636 815C684.033 815 703 833.967 703 857.364L703 985.636C703 1009.03 684.033 1028 660.636 1028L260.364 1028C236.967 1028 218 1009.03 218 985.636Z" fill="#FF6648" fill-rule="evenodd" fill-opacity="1"/><text fill="#FFFFFF" fill-opacity="1" font-family="PingFang SC,PingFang SC_MSFontService,sans-serif" font-style="normal" font-variant="normal" font-weight="600" font-stretch="normal" font-size="73" text-anchor="start" direction="ltr" writing-mode="lr-tb" unicode-bidi="normal" text-decoration="none" transform="matrix(1 0 0 1 265.558 945)">Workspace</text><path d="M1378 857.364C1378 833.967 1396.97 815 1420.36 815L1820.64 815C1844.03 815 1863 833.967 1863 857.364L1863 985.636C1863 1009.03 1844.03 1028 1820.64 1028L1420.36 1028C1396.97 1028 1378 1009.03 1378 985.636Z" fill="#FFB805" fill-rule="evenodd" fill-opacity="1"/><text fill="#FFFFFF" fill-opacity="1" font-family="PingFang SC,PingFang SC_MSFontService,sans-serif" font-style="normal" font-variant="normal" font-weight="600" font-stretch="normal" font-size="73" text-anchor="start" direction="ltr" writing-mode="lr-tb" unicode-bidi="normal" text-decoration="none" transform="matrix(1 0 0 1 1526.73 901)">Index</text><text fill="#FFFFFF" fill-opacity="1" font-family="PingFang SC,PingFang SC_MSFontService,sans-serif" font-style="normal" font-variant="normal" font-weight="600" font-stretch="normal" font-size="73" text-anchor="start" direction="ltr" writing-mode="lr-tb" unicode-bidi="normal" text-decoration="none" transform="matrix(1 0 0 1 1500.95 989)">/Stage</text><path d="M2537 857.364C2537 833.967 2555.97 815 2579.36 815L2979.64 815C3003.03 815 3022 833.967 3022 857.364L3022 985.636C3022 1009.03 3003.03 1028 2979.64 1028L2579.36 1028C2555.97 1028 2537 1009.03 2537 985.636Z" fill="#2BAAFF" fill-rule="evenodd" fill-opacity="1"/><text fill="#FFFFFF" fill-opacity="1" font-family="PingFang SC,PingFang SC_MSFontService,sans-serif" font-style="normal" font-variant="normal" font-weight="600" font-stretch="normal" font-size="73" text-anchor="start" direction="ltr" writing-mode="lr-tb" unicode-bidi="normal" text-decoration="none" transform="matrix(1 0 0 1 2685.08 901)">Local</text><text fill="#FFFFFF" fill-opacity="1" font-family="PingFang SC,PingFang SC_MSFontService,sans-serif" font-style="normal" font-variant="normal" font-weight="600" font-stretch="normal" font-size="73" text-anchor="start" direction="ltr" writing-mode="lr-tb" unicode-bidi="normal" text-decoration="none" transform="matrix(1 0 0 1 2591.97 989)">Repository</text><path d="M3697 857.364C3697 833.967 3715.97 815 3739.36 815L4139.64 815C4163.03 815 4182 833.967 4182 857.364L4182 985.636C4182 1009.03 4163.03 1028 4139.64 1028L3739.36 1028C3715.97 1028 3697 1009.03 3697 985.636Z" fill="#2BB972" fill-rule="evenodd" fill-opacity="1"/><text fill="#FFFFFF" fill-opacity="1" font-family="PingFang SC,PingFang SC_MSFontService,sans-serif" font-style="normal" font-variant="normal" font-weight="600" font-stretch="normal" font-size="73" text-anchor="start" direction="ltr" writing-mode="lr-tb" unicode-bidi="normal" text-decoration="none" transform="matrix(1 0 0 1 3804.74 901)">Remote</text><text fill="#FFFFFF" fill-opacity="1" font-family="PingFang SC,PingFang SC_MSFontService,sans-serif" font-style="normal" font-variant="normal" font-weight="600" font-stretch="normal" font-size="73" text-anchor="start" direction="ltr" writing-mode="lr-tb" unicode-bidi="normal" text-decoration="none" transform="matrix(1 0 0 1 3751.73 989)">Repository</text><path d="M458.944 817.586 459.206 815.181 460.11 812.406 461.509 809.811 463.326 807.388 465.516 805.103 468.057 802.921 470.942 800.814 474.213 798.734 481.626 794.779 490.443 790.904 500.576 787.117 511.993 783.407 524.652 779.773 538.509 776.217 553.517 772.744 569.626 769.359 586.787 766.068 604.949 762.877 624.059 759.795 644.067 756.827 664.921 753.981 686.567 751.265 708.954 748.686 732.029 746.25 755.739 743.967 780.031 741.842 804.854 739.884 830.154 738.1 855.878 736.498 881.982 735.084 935.067 732.856 989.011 731.474 1043.38 731 1097.75 731.448 1151.69 732.752 1204.77 734.857 1230.87 736.192 1256.6 737.705 1281.89 739.39 1306.71 741.239 1331 743.245 1354.71 745.402 1377.79 747.702 1400.17 750.138 1421.81 752.703 1442.66 755.39 1462.67 758.192 1481.78 761.103 1499.93 764.116 1517.09 767.223 1533.2 770.42 1548.2 773.699 1562.05 777.056 1574.71 780.486 1586.11 783.988 1596.49 787.649 1608.38 794.258 1603.92 802.27 1592.37 795.849 1593.07 796.165 1583.15 792.664 1583.33 792.723 1572.09 789.272 1572.23 789.314 1559.71 785.919 1559.83 785.95 1546.09 782.62 1546.19 782.643 1531.28 779.384 1531.37 779.402 1515.35 776.222 1515.42 776.236 1498.33 773.142 1498.4 773.153 1480.31 770.151 1480.37 770.161 1461.32 767.259 1461.37 767.267 1441.42 764.471 1441.47 764.478 1420.66 761.797 1420.71 761.803 1399.11 759.243 1399.16 759.248 1376.81 756.817 1376.86 756.821 1353.82 754.525 1353.86 754.529 1330.19 752.376 1330.23 752.379 1305.98 750.376 1306.01 750.379 1281.23 748.532 1281.27 748.535 1256 746.853 1256.04 746.855 1230.35 745.344 1230.39 745.346 1204.33 744.013 1204.38 744.015 1151.36 741.913 1151.43 741.916 1097.57 740.613 1097.64 740.614 1043.35 740.167 1043.42 740.167 989.13 740.64 989.207 740.639 935.339 742.018 935.414 742.016 882.394 744.241 882.45 744.239 856.392 745.65 856.429 745.648 830.742 747.248 830.78 747.245 805.518 749.027 805.556 749.024 780.772 750.979 780.811 750.976 756.557 753.097 756.597 753.093 732.928 755.373 732.97 755.369 709.938 757.799 709.981 757.795 687.639 760.369 687.685 760.363 666.086 763.074 666.135 763.067 645.333 765.906 645.386 765.898 625.433 768.858 625.49 768.849 606.44 771.922 606.503 771.911 588.408 775.09 588.479 775.077 571.392 778.354 571.472 778.338 555.447 781.705 555.538 781.685 540.629 785.136 540.735 785.11 526.993 788.636 527.119 788.602 514.598 792.196 514.75 792.149 503.504 795.804 503.692 795.738 493.773 799.446 494.013 799.348 485.474 803.101 485.787 802.949 478.682 806.739 478.984 806.563 475.986 808.47 476.229 808.304 473.609 810.217 473.892 809.993 471.656 811.913 471.98 811.606 470.136 813.53 470.494 813.109 469.048 815.037 469.416 814.462 468.375 816.393 468.699 815.637 468.069 817.569 468.267 816.648 468.056 818.581ZM1611.87 784.946 1623.27 813.5 1593.58 805.487Z" fill="#BFBFBF" fill-rule="nonzero" fill-opacity="1"/><path d="M1617.94 817.586 1618.21 815.181 1619.11 812.406 1620.51 809.811 1622.33 807.388 1624.52 805.103 1627.06 802.921 1629.94 800.814 1633.21 798.734 1640.63 794.779 1649.44 790.904 1659.58 787.117 1670.99 783.407 1683.65 779.773 1697.51 776.217 1712.52 772.744 1728.63 769.359 1745.79 766.068 1763.95 762.877 1783.06 759.795 1803.07 756.827 1823.92 753.981 1845.57 751.265 1867.95 748.686 1891.03 746.25 1914.74 743.967 1939.03 741.842 1963.85 739.884 1989.15 738.1 2014.88 736.498 2040.98 735.084 2094.07 732.856 2148.01 731.474 2202.38 731 2256.75 731.448 2310.69 732.752 2363.77 734.857 2389.87 736.192 2415.6 737.705 2440.89 739.39 2465.71 741.239 2490 743.245 2513.71 745.402 2536.79 747.702 2559.17 750.138 2580.81 752.703 2601.66 755.39 2621.67 758.192 2640.78 761.103 2658.94 764.116 2676.09 767.223 2692.2 770.42 2707.2 773.699 2721.05 777.056 2733.71 780.486 2745.11 783.988 2755.49 787.649 2767.38 794.258 2762.92 802.27 2751.37 795.849 2752.07 796.165 2742.15 792.664 2742.33 792.723 2731.09 789.272 2731.23 789.314 2718.71 785.919 2718.83 785.95 2705.09 782.62 2705.19 782.643 2690.28 779.384 2690.37 779.402 2674.35 776.222 2674.42 776.236 2657.33 773.142 2657.4 773.153 2639.31 770.151 2639.37 770.161 2620.32 767.259 2620.37 767.267 2600.42 764.471 2600.47 764.478 2579.67 761.797 2579.71 761.803 2558.11 759.243 2558.16 759.248 2535.81 756.817 2535.86 756.821 2512.82 754.525 2512.86 754.529 2489.19 752.376 2489.23 752.379 2464.98 750.376 2465.01 750.379 2440.23 748.532 2440.27 748.535 2415 746.853 2415.04 746.855 2389.35 745.344 2389.39 745.346 2363.33 744.013 2363.38 744.015 2310.36 741.913 2310.43 741.916 2256.57 740.613 2256.64 740.614 2202.35 740.167 2202.42 740.167 2148.13 740.64 2148.21 740.639 2094.34 742.018 2094.41 742.016 2041.39 744.241 2041.45 744.239 2015.39 745.65 2015.43 745.648 1989.74 747.248 1989.78 747.245 1964.52 749.027 1964.56 749.024 1939.77 750.979 1939.81 750.976 1915.56 753.097 1915.6 753.093 1891.93 755.373 1891.97 755.369 1868.94 757.799 1868.98 757.795 1846.64 760.369 1846.69 760.363 1825.09 763.074 1825.14 763.067 1804.33 765.906 1804.39 765.898 1784.43 768.858 1784.49 768.849 1765.44 771.922 1765.5 771.911 1747.41 775.09 1747.48 775.077 1730.39 778.354 1730.47 778.338 1714.45 781.705 1714.54 781.685 1699.63 785.136 1699.73 785.11 1685.99 788.636 1686.12 788.602 1673.6 792.196 1673.75 792.149 1662.5 795.804 1662.69 795.738 1652.77 799.446 1653.01 799.348 1644.47 803.101 1644.79 802.949 1637.68 806.739 1637.98 806.563 1634.99 808.47 1635.23 808.304 1632.61 810.217 1632.89 809.993 1630.66 811.913 1630.98 811.606 1629.14 813.53 1629.49 813.109 1628.05 815.037 1628.42 814.462 1627.38 816.393 1627.7 815.637 1627.07 817.569 1627.27 816.648 1627.06 818.581ZM2770.87 784.946 2782.27 813.5 2752.58 805.487Z" fill="#BFBFBF" fill-rule="nonzero" fill-opacity="1"/><path d="M458.924 817.821 459.361 810.202 460.705 802.35 462.915 794.544 465.966 786.798 469.833 779.116 474.491 771.5 479.921 763.951 486.103 756.466 493.02 749.043 500.658 741.681 509.003 734.379 518.041 727.136 527.758 719.953 538.143 712.831 549.183 705.77 560.865 698.774 573.177 691.843 586.105 684.98 599.638 678.187 613.763 671.468 628.466 664.825 643.736 658.261 659.559 651.78 675.922 645.384 692.813 639.077 710.219 632.862 728.126 626.742 746.521 620.721 765.393 614.802 784.726 608.988 804.509 603.284 824.728 597.692 845.371 592.216 866.423 586.86 887.873 581.626 909.716 576.517 954.471 566.699 1000.61 557.428 1048.03 548.733 1096.61 540.644 1146.25 533.19 1196.84 526.398 1248.28 520.297 1300.47 514.917 1353.29 510.285 1406.65 506.431 1460.43 503.383 1514.53 501.17 1568.84 499.822 1623.27 499.366 1677.69 499.815 1732 501.144 1786.1 503.324 1839.88 506.328 1893.23 510.125 1946.06 514.689 1998.24 519.991 2049.68 526.003 2100.28 532.696 2149.92 540.041 2198.5 548.012 2245.91 556.58 2292.05 565.716 2336.8 575.39 2358.65 580.424 2380.09 585.581 2401.15 590.86 2421.79 596.255 2442.01 601.766 2461.79 607.387 2481.12 613.115 2499.99 618.948 2518.39 624.881 2536.29 630.911 2553.7 637.035 2570.59 643.25 2586.95 649.553 2602.78 655.939 2618.04 662.407 2632.75 668.953 2646.87 675.573 2660.4 682.266 2673.33 689.029 2685.64 695.859 2697.32 702.753 2708.36 709.71 2718.75 716.729 2728.47 723.807 2737.5 730.944 2745.85 738.14 2753.49 745.396 2760.41 752.712 2766.59 760.091 2772.02 767.534 2776.69 775.043 2780.67 782.85 2782.61 789.886 2773.77 792.316 2771.96 785.732 2772.3 786.602 2768.61 779.383 2768.8 779.716 2764.33 772.514 2764.52 772.799 2759.28 765.619 2759.47 765.861 2753.47 758.706 2753.65 758.911 2746.91 751.784 2747.09 751.958 2739.62 744.863 2739.78 745.011 2731.59 737.951 2731.75 738.077 2722.86 731.056 2723 731.164 2713.42 724.186 2713.55 724.278 2703.29 717.346 2703.41 717.426 2692.49 710.544 2692.61 710.613 2681.04 703.784 2681.14 703.845 2668.93 697.072 2669.03 697.125 2656.2 690.413 2656.29 690.46 2642.85 683.811 2642.94 683.853 2628.9 677.271 2628.98 677.309 2614.35 670.798 2614.43 670.831 2599.24 664.395 2599.31 664.425 2583.56 658.067 2583.62 658.093 2567.33 651.817 2567.39 651.841 2550.56 645.649 2550.63 645.671 2533.28 639.568 2533.34 639.588 2515.49 633.577 2515.55 633.596 2497.21 627.68 2497.26 627.697 2478.44 621.881 2478.49 621.896 2459.21 616.183 2459.26 616.197 2439.53 610.59 2439.57 610.603 2419.4 605.106 2419.45 605.118 2398.85 599.734 2398.89 599.745 2377.89 594.478 2377.93 594.489 2356.52 589.342 2356.57 589.352 2334.77 584.329 2334.84 584.343 2290.15 574.684 2290.23 574.7 2244.17 565.579 2244.24 565.593 2196.9 557.039 2196.97 557.052 2148.47 549.093 2148.54 549.104 2098.97 541.769 2099.04 541.778 2048.52 535.095 2048.59 535.103 1997.21 529.1 1997.28 529.108 1945.17 523.813 1945.23 523.819 1892.48 519.261 1892.55 519.266 1839.26 515.474 1839.33 515.478 1785.63 512.479 1785.7 512.482 1731.67 510.305 1731.74 510.307 1677.5 508.98 1677.58 508.981 1623.23 508.532 1623.3 508.532 1568.96 508.988 1569.03 508.986 1514.79 510.333 1514.87 510.331 1460.84 512.541 1460.91 512.537 1407.2 515.581 1407.27 515.576 1353.99 519.425 1354.06 519.42 1301.3 524.045 1301.37 524.039 1249.26 529.412 1249.33 529.404 1197.95 535.496 1198.02 535.488 1147.5 542.27 1147.57 542.26 1098 549.704 1098.08 549.693 1049.57 557.769 1049.64 557.756 1002.3 566.437 1002.38 566.422 956.316 575.678 956.395 575.662 911.711 585.464 911.773 585.45 889.982 590.547 890.024 590.537 868.618 595.76 868.662 595.749 847.654 601.094 847.699 601.082 827.102 606.546 827.149 606.534 806.977 612.112 807.025 612.099 787.291 617.789 787.341 617.774 768.058 623.572 768.11 623.557 749.292 629.459 749.346 629.442 731.006 635.445 731.062 635.426 713.213 641.526 713.272 641.505 695.927 647.699 695.989 647.676 679.162 653.959 679.227 653.935 662.931 660.304 662.999 660.277 647.247 666.729 647.32 666.699 632.125 673.23 632.202 673.196 617.578 679.803 617.66 679.765 603.62 686.444 603.707 686.401 590.264 693.149 590.357 693.101 577.525 699.913 577.624 699.858 565.416 706.731 565.522 706.669 553.951 713.6 554.065 713.529 543.144 720.513 543.267 720.432 533.01 727.467 533.142 727.373 523.561 734.454 523.703 734.345 514.813 741.47 514.965 741.342 506.778 748.507 506.94 748.357 499.47 755.558 499.643 755.382 492.902 762.615 493.083 762.409 487.086 769.67 487.273 769.427 482.033 776.714 482.222 776.43 477.751 783.738 477.935 783.406 474.248 790.732 474.418 790.351 471.527 797.692 471.673 797.261 469.591 804.612 469.699 804.136 468.44 811.494 468.498 810.984 468.076 818.346ZM2790.66 783.715 2783.03 813.5 2763.78 789.528Z" fill="#BFBFBF" fill-rule="nonzero" fill-opacity="1"/><text fill="#000000" fill-opacity="1" font-family="PingFang SC,PingFang SC_MSFontService,sans-serif" font-style="normal" font-variant="normal" font-weight="600" font-stretch="normal" font-size="55" text-anchor="start" direction="ltr" writing-mode="lr-tb" unicode-bidi="normal" text-decoration="none" transform="matrix(1 0 0 1 943.327 638)">暂存</text><text fill="#000000" fill-opacity="1" font-family="PingFang SC,PingFang SC_MSFontService,sans-serif" font-style="normal" font-variant="normal" font-weight="600" font-stretch="normal" font-size="55" text-anchor="start" direction="ltr" writing-mode="lr-tb" unicode-bidi="normal" text-decoration="none" transform="matrix(1 0 0 1 845.931 704)">git add (</text><text fill="#000000" fill-opacity="1" font-family="PingFang SC,PingFang SC_MSFontService,sans-serif" font-style="normal" font-variant="normal" font-weight="600" font-stretch="normal" font-size="55" text-anchor="start" direction="ltr" writing-mode="lr-tb" unicode-bidi="normal" text-decoration="none" transform="matrix(1 0 0 1 1067.08 704)">-</text><text fill="#000000" fill-opacity="1" font-family="PingFang SC,PingFang SC_MSFontService,sans-serif" font-style="normal" font-variant="normal" font-weight="600" font-stretch="normal" font-size="55" text-anchor="start" direction="ltr" writing-mode="lr-tb" unicode-bidi="normal" text-decoration="none" transform="matrix(1 0 0 1 1100.31 704)">u)</text><text fill="#000000" fill-opacity="1" font-family="PingFang SC,PingFang SC_MSFontService,sans-serif" font-style="normal" font-variant="normal" font-weight="600" font-stretch="normal" font-size="55" text-anchor="start" direction="ltr" writing-mode="lr-tb" unicode-bidi="normal" text-decoration="none" transform="matrix(1 0 0 1 2134.08 638)">提交</text><text fill="#000000" fill-opacity="1" font-family="PingFang SC,PingFang SC_MSFontService,sans-serif" font-style="normal" font-variant="normal" font-weight="600" font-stretch="normal" font-size="55" text-anchor="start" direction="ltr" writing-mode="lr-tb" unicode-bidi="normal" text-decoration="none" transform="matrix(1 0 0 1 2047.57 704)">git</text><text fill="#000000" fill-opacity="1" font-family="PingFang SC,PingFang SC_MSFontService,sans-serif" font-style="normal" font-variant="normal" font-weight="600" font-stretch="normal" font-size="55" text-anchor="start" direction="ltr" writing-mode="lr-tb" unicode-bidi="normal" text-decoration="none" transform="matrix(1 0 0 1 2134.08 704)">commit</text><text fill="#000000" fill-opacity="1" font-family="PingFang SC,PingFang SC_MSFontService,sans-serif" font-style="normal" font-variant="normal" font-weight="600" font-stretch="normal" font-size="55" text-anchor="start" direction="ltr" writing-mode="lr-tb" unicode-bidi="normal" text-decoration="none" transform="matrix(1 0 0 1 1567.4 411)">提交</text><text fill="#000000" fill-opacity="1" font-family="PingFang SC,PingFang SC_MSFontService,sans-serif" font-style="normal" font-variant="normal" font-weight="600" font-stretch="normal" font-size="55" text-anchor="start" direction="ltr" writing-mode="lr-tb" unicode-bidi="normal" text-decoration="none" transform="matrix(1 0 0 1 1439.36 477)">git</text><text fill="#000000" fill-opacity="1" font-family="PingFang SC,PingFang SC_MSFontService,sans-serif" font-style="normal" font-variant="normal" font-weight="600" font-stretch="normal" font-size="55" text-anchor="start" direction="ltr" writing-mode="lr-tb" unicode-bidi="normal" text-decoration="none" transform="matrix(1 0 0 1 1525.87 477)">commit </text><text fill="#000000" fill-opacity="1" font-family="PingFang SC,PingFang SC_MSFontService,sans-serif" font-style="normal" font-variant="normal" font-weight="600" font-stretch="normal" font-size="55" text-anchor="start" direction="ltr" writing-mode="lr-tb" unicode-bidi="normal" text-decoration="none" transform="matrix(1 0 0 1 1740.72 477)">-</text><text fill="#000000" fill-opacity="1" font-family="PingFang SC,PingFang SC_MSFontService,sans-serif" font-style="normal" font-variant="normal" font-weight="600" font-stretch="normal" font-size="55" text-anchor="start" direction="ltr" writing-mode="lr-tb" unicode-bidi="normal" text-decoration="none" transform="matrix(1 0 0 1 1773.94 477)">a</text><path d="M2777.94 817.586 2778.21 815.181 2779.11 812.406 2780.51 809.811 2782.33 807.388 2784.52 805.103 2787.06 802.921 2789.94 800.814 2793.21 798.734 2800.63 794.779 2809.44 790.904 2819.58 787.117 2830.99 783.407 2843.65 779.773 2857.51 776.217 2872.52 772.744 2888.63 769.359 2905.79 766.068 2923.95 762.877 2943.06 759.795 2963.07 756.827 2983.92 753.981 3005.57 751.265 3027.95 748.686 3051.03 746.25 3074.74 743.967 3099.03 741.842 3123.85 739.884 3149.15 738.1 3174.88 736.498 3200.98 735.084 3254.07 732.856 3308.01 731.474 3362.38 731 3416.75 731.448 3470.69 732.752 3523.77 734.857 3549.87 736.192 3575.6 737.705 3600.89 739.39 3625.71 741.239 3650.01 743.245 3673.71 745.402 3696.79 747.702 3719.17 750.138 3740.81 752.703 3761.66 755.39 3781.67 758.192 3800.78 761.103 3818.94 764.116 3836.09 767.223 3852.2 770.42 3867.2 773.699 3881.05 777.056 3893.71 780.486 3905.12 783.988 3915.49 787.649 3927.38 794.258 3922.92 802.27 3911.37 795.849 3912.07 796.165 3902.15 792.664 3902.33 792.723 3891.09 789.272 3891.23 789.314 3878.71 785.919 3878.83 785.95 3865.09 782.62 3865.19 782.643 3850.28 779.384 3850.37 779.402 3834.35 776.222 3834.42 776.236 3817.33 773.142 3817.4 773.153 3799.31 770.151 3799.37 770.161 3780.32 767.259 3780.37 767.267 3760.42 764.471 3760.47 764.478 3739.67 761.797 3739.71 761.803 3718.11 759.243 3718.16 759.248 3695.81 756.817 3695.86 756.821 3672.82 754.525 3672.86 754.529 3649.19 752.376 3649.23 752.379 3624.98 750.376 3625.02 750.379 3600.23 748.532 3600.27 748.535 3575 746.853 3575.04 746.855 3549.35 745.344 3549.39 745.346 3523.33 744.013 3523.38 744.015 3470.36 741.913 3470.43 741.916 3416.57 740.613 3416.64 740.614 3362.35 740.167 3362.42 740.167 3308.13 740.64 3308.21 740.639 3254.34 742.018 3254.41 742.016 3201.39 744.241 3201.45 744.239 3175.39 745.65 3175.43 745.648 3149.74 747.248 3149.78 747.245 3124.52 749.027 3124.56 749.024 3099.77 750.979 3099.81 750.976 3075.56 753.097 3075.6 753.093 3051.93 755.373 3051.97 755.369 3028.94 757.799 3028.98 757.795 3006.64 760.369 3006.69 760.363 2985.09 763.074 2985.14 763.067 2964.33 765.906 2964.39 765.898 2944.43 768.858 2944.49 768.849 2925.44 771.922 2925.5 771.911 2907.41 775.09 2907.48 775.077 2890.39 778.354 2890.47 778.338 2874.45 781.705 2874.54 781.685 2859.63 785.136 2859.73 785.11 2845.99 788.636 2846.12 788.602 2833.6 792.196 2833.75 792.149 2822.5 795.804 2822.69 795.738 2812.77 799.446 2813.01 799.348 2804.47 803.101 2804.79 802.949 2797.68 806.739 2797.98 806.563 2794.99 808.47 2795.23 808.304 2792.61 810.217 2792.89 809.993 2790.66 811.913 2790.98 811.606 2789.14 813.53 2789.49 813.109 2788.05 815.037 2788.42 814.462 2787.38 816.393 2787.7 815.637 2787.07 817.569 2787.27 816.648 2787.06 818.581ZM3930.87 784.946 3942.27 813.5 3912.58 805.487Z" fill="#BFBFBF" fill-rule="nonzero" fill-opacity="1"/><text fill="#000000" fill-opacity="1" font-family="PingFang SC,PingFang SC_MSFontService,sans-serif" font-style="normal" font-variant="normal" font-weight="600" font-stretch="normal" font-size="55" text-anchor="start" direction="ltr" writing-mode="lr-tb" unicode-bidi="normal" text-decoration="none" transform="matrix(1 0 0 1 3338.58 638)">推送</text><text fill="#000000" fill-opacity="1" font-family="PingFang SC,PingFang SC_MSFontService,sans-serif" font-style="normal" font-variant="normal" font-weight="600" font-stretch="normal" font-size="55" text-anchor="start" direction="ltr" writing-mode="lr-tb" unicode-bidi="normal" text-decoration="none" transform="matrix(1 0 0 1 3287.59 704)">git</text><text fill="#000000" fill-opacity="1" font-family="PingFang SC,PingFang SC_MSFontService,sans-serif" font-style="normal" font-variant="normal" font-weight="600" font-stretch="normal" font-size="55" text-anchor="start" direction="ltr" writing-mode="lr-tb" unicode-bidi="normal" text-decoration="none" transform="matrix(1 0 0 1 3374.1 704)">push</text><path d="M3946.82 1027 3946.56 1029.4 3945.66 1032.18 3944.26 1034.77 3942.44 1037.2 3940.25 1039.48 3937.71 1041.66 3934.82 1043.77 3931.55 1045.85 3924.14 1049.8 3915.32 1053.68 3905.19 1057.47 3893.77 1061.18 3881.11 1064.81 3867.26 1068.37 3852.25 1071.84 3836.14 1075.22 3818.98 1078.52 3800.82 1081.71 3781.71 1084.79 3761.7 1087.76 3740.85 1090.6 3719.2 1093.32 3696.81 1095.9 3673.74 1098.33 3650.03 1100.62 3625.74 1102.74 3600.91 1104.7 3575.61 1106.48 3549.89 1108.09 3523.78 1109.5 3470.7 1111.73 3416.76 1113.11 3362.38 1113.58 3308.02 1113.14 3254.08 1111.83 3200.99 1109.73 3174.89 1108.39 3149.17 1106.88 3123.87 1105.19 3099.05 1103.34 3074.76 1101.34 3051.05 1099.18 3027.98 1096.88 3005.6 1094.45 2983.95 1091.88 2963.1 1089.19 2943.1 1086.39 2923.99 1083.48 2905.83 1080.47 2888.67 1077.36 2872.57 1074.16 2857.57 1070.88 2843.71 1067.53 2831.06 1064.1 2819.65 1060.6 2809.28 1056.93 2797.39 1050.33 2801.84 1042.31 2813.4 1048.73 2812.69 1048.42 2822.61 1051.92 2822.43 1051.86 2833.68 1055.31 2833.53 1055.27 2846.05 1058.66 2845.93 1058.63 2859.68 1061.96 2859.57 1061.94 2874.48 1065.2 2874.4 1065.18 2890.42 1068.36 2890.35 1068.35 2907.43 1071.44 2907.37 1071.43 2925.46 1074.43 2925.4 1074.42 2944.45 1077.32 2944.4 1077.32 2964.35 1080.11 2964.3 1080.11 2985.1 1082.79 2985.06 1082.78 3006.65 1085.34 3006.61 1085.34 3028.95 1087.77 3028.91 1087.76 3051.94 1090.06 3051.9 1090.05 3075.57 1092.21 3075.54 1092.2 3099.79 1094.21 3099.75 1094.2 3124.54 1096.05 3124.5 1096.05 3149.76 1097.73 3149.73 1097.73 3175.41 1099.24 3175.38 1099.24 3201.44 1100.57 3201.38 1100.57 3254.4 1102.67 3254.33 1102.67 3308.2 1103.97 3308.13 1103.97 3362.42 1104.42 3362.34 1104.42 3416.64 1103.94 3416.56 1103.94 3470.43 1102.57 3470.35 1102.57 3523.37 1100.34 3523.32 1100.34 3549.38 1098.93 3549.34 1098.94 3575.02 1097.34 3574.99 1097.34 3600.25 1095.56 3600.21 1095.56 3625 1093.6 3624.96 1093.61 3649.21 1091.49 3649.17 1091.49 3672.84 1089.21 3672.8 1089.21 3695.83 1086.78 3695.79 1086.79 3718.13 1084.21 3718.08 1084.22 3739.68 1081.51 3739.63 1081.52 3760.43 1078.68 3760.38 1078.68 3780.33 1075.73 3780.28 1075.73 3799.33 1072.66 3799.26 1072.67 3817.36 1069.49 3817.29 1069.51 3834.37 1066.23 3834.29 1066.25 3850.32 1062.88 3850.23 1062.9 3865.14 1059.45 3865.03 1059.47 3878.77 1055.95 3878.65 1055.98 3891.17 1052.39 3891.02 1052.43 3902.26 1048.78 3902.07 1048.85 3911.99 1045.14 3911.75 1045.24 3920.29 1041.48 3919.98 1041.63 3927.08 1037.84 3926.78 1038.02 3929.78 1036.11 3929.54 1036.28 3932.16 1034.37 3931.88 1034.59 3934.11 1032.67 3933.79 1032.98 3935.63 1031.05 3935.27 1031.47 3936.72 1029.55 3936.35 1030.12 3937.39 1028.19 3937.07 1028.95 3937.7 1027.01 3937.5 1027.94 3937.71 1026ZM2793.9 1059.64 2782.5 1031.08 2812.18 1039.1Z" fill="#BFBFBF" fill-rule="nonzero" fill-opacity="1"/><text fill="#000000" fill-opacity="1" font-family="PingFang SC,PingFang SC_MSFontService,sans-serif" font-style="normal" font-variant="normal" font-weight="600" font-stretch="normal" font-size="55" text-anchor="start" direction="ltr" writing-mode="lr-tb" unicode-bidi="normal" text-decoration="none" transform="matrix(1 0 0 1 3283.29 1160)">git</text><text fill="#000000" fill-opacity="1" font-family="PingFang SC,PingFang SC_MSFontService,sans-serif" font-style="normal" font-variant="normal" font-weight="600" font-stretch="normal" font-size="55" text-anchor="start" direction="ltr" writing-mode="lr-tb" unicode-bidi="normal" text-decoration="none" transform="matrix(1 0 0 1 3369.8 1160)">fetch</text><text fill="#000000" fill-opacity="1" font-family="PingFang SC,PingFang SC_MSFontService,sans-serif" font-style="normal" font-variant="normal" font-weight="600" font-stretch="normal" font-size="55" text-anchor="start" direction="ltr" writing-mode="lr-tb" unicode-bidi="normal" text-decoration="none" transform="matrix(1 0 0 1 3338.57 1226)">抓取</text><path d="M3947.37 1026.83 3946.71 1035.86 3944.69 1045.16 3941.38 1054.39 3936.81 1063.52 3931.04 1072.56 3924.09 1081.51 3916 1090.37 3906.79 1099.16 3896.48 1107.87 3885.1 1116.52 3872.66 1125.1 3859.17 1133.61 3844.67 1142.06 3829.16 1150.44 3812.67 1158.75 3795.21 1166.99 3776.8 1175.15 3757.46 1183.24 3737.22 1191.24 3716.09 1199.16 3694.08 1207 3671.22 1214.74 3647.54 1222.38 3623.03 1229.93 3597.74 1237.37 3571.67 1244.7 3544.85 1251.93 3517.29 1259.03 3489.02 1266.02 3460.05 1272.88 3430.41 1279.62 3400.12 1286.22 3369.18 1292.68 3337.64 1299.01 3305.49 1305.19 3272.77 1311.22 3239.49 1317.09 3205.68 1322.81 3171.35 1328.37 3136.52 1333.76 3101.21 1338.98 3065.45 1344.03 3029.25 1348.9 2992.63 1353.58 2955.62 1358.08 2918.22 1362.39 2842.38 1370.41 2765.27 1377.61 2687.04 1383.97 2607.85 1389.44 2527.87 1393.99 2447.25 1397.59 2366.15 1400.2 2284.73 1401.8 2203.15 1402.33 2121.57 1401.8 2040.15 1400.23 1959.05 1397.65 1878.43 1394.09 1798.45 1389.6 1719.27 1384.19 1641.04 1377.92 1563.92 1370.8 1488.09 1362.88 1450.69 1358.63 1413.67 1354.18 1377.06 1349.56 1340.86 1344.75 1305.09 1339.76 1269.79 1334.61 1234.96 1329.28 1200.63 1323.79 1166.82 1318.15 1133.54 1312.34 1100.82 1306.39 1068.68 1300.28 1037.13 1294.04 1006.2 1287.65 975.899 1281.13 946.258 1274.48 917.292 1267.7 889.021 1260.8 861.465 1253.78 834.643 1246.65 808.575 1239.41 783.281 1232.06 758.78 1224.61 735.092 1217.06 712.235 1209.41 690.23 1201.67 669.097 1193.85 648.853 1185.95 629.519 1177.96 611.113 1169.9 593.655 1161.76 577.162 1153.55 561.654 1145.27 547.15 1136.93 533.666 1128.52 521.223 1120.05 509.839 1111.51 499.531 1102.91 490.32 1094.23 482.228 1085.47 475.278 1076.63 469.394 1067.53 464.39 1055.13 472.891 1051.7 477.731 1063.7 477.329 1062.92 482.86 1071.48 482.615 1071.13 489.321 1079.66 489.084 1079.38 496.944 1087.89 496.721 1087.66 505.717 1096.14 505.512 1095.96 515.622 1104.4 515.434 1104.25 526.64 1112.65 526.469 1112.53 538.75 1120.9 538.595 1120.79 551.931 1129.11 551.791 1129.03 566.161 1137.29 566.034 1137.22 581.42 1145.43 581.304 1145.37 597.686 1153.53 597.58 1153.47 614.937 1161.56 614.84 1161.52 633.153 1169.54 633.064 1169.51 652.312 1177.46 652.23 1177.42 672.394 1185.3 672.318 1185.27 693.377 1193.07 693.306 1193.04 715.242 1200.75 715.176 1200.73 737.969 1208.35 737.906 1208.33 761.535 1215.86 761.477 1215.85 785.921 1223.28 785.867 1223.26 811.107 1230.6 811.055 1230.58 837.073 1237.81 837.024 1237.8 863.798 1244.92 863.751 1244.91 891.262 1251.91 891.217 1251.9 919.444 1258.79 919.402 1258.78 948.326 1265.55 948.285 1265.54 977.886 1272.18 977.847 1272.17 1008.1 1278.69 1008.07 1278.68 1038.96 1285.06 1038.93 1285.05 1070.44 1291.29 1070.4 1291.28 1102.51 1297.38 1102.48 1297.37 1135.16 1303.32 1135.13 1303.31 1168.38 1309.11 1168.34 1309.11 1202.13 1314.75 1202.09 1314.74 1236.39 1320.23 1236.36 1320.22 1271.16 1325.54 1271.13 1325.54 1306.4 1330.69 1306.37 1330.69 1342.11 1335.67 1342.08 1335.66 1378.25 1340.47 1378.22 1340.46 1414.81 1345.09 1414.78 1345.08 1451.77 1349.52 1451.74 1349.52 1489.1 1353.77 1489.06 1353.76 1564.85 1361.68 1564.79 1361.68 1641.85 1368.79 1641.8 1368.78 1719.97 1375.05 1719.92 1375.05 1799.05 1380.45 1798.99 1380.45 1878.92 1384.94 1878.87 1384.94 1959.43 1388.49 1959.37 1388.49 2040.42 1391.07 2040.36 1391.06 2121.72 1392.64 2121.66 1392.64 2203.18 1393.17 2203.12 1393.17 2284.64 1392.63 2284.58 1392.63 2365.94 1391.04 2365.88 1391.04 2446.92 1388.43 2446.87 1388.43 2527.43 1384.83 2527.37 1384.84 2607.3 1380.29 2607.25 1380.29 2686.38 1374.82 2686.32 1374.83 2764.5 1368.48 2764.44 1368.48 2841.5 1361.28 2841.45 1361.29 2917.23 1353.27 2917.19 1353.28 2954.55 1348.97 2954.53 1348.98 2991.51 1344.48 2991.48 1344.49 3028.07 1339.81 3028.04 1339.81 3064.21 1334.95 3064.19 1334.95 3099.92 1329.91 3099.89 1329.91 3135.16 1324.69 3135.13 1324.7 3169.93 1319.31 3169.9 1319.32 3204.2 1313.77 3204.17 1313.77 3237.95 1308.06 3237.91 1308.06 3271.16 1302.19 3271.12 1302.2 3303.81 1296.17 3303.78 1296.18 3335.89 1290.01 3335.85 1290.01 3367.36 1283.7 3367.33 1283.71 3398.22 1277.25 3398.18 1277.26 3428.44 1270.66 3428.4 1270.67 3458 1263.95 3457.96 1263.96 3486.89 1257.1 3486.84 1257.11 3515.07 1250.14 3515.02 1250.15 3542.54 1243.06 3542.49 1243.07 3569.26 1235.86 3569.21 1235.87 3595.23 1228.55 3595.18 1228.57 3620.42 1221.14 3620.36 1221.16 3644.81 1213.63 3644.75 1213.65 3668.38 1206.02 3668.31 1206.04 3691.11 1198.33 3691.04 1198.35 3712.98 1190.54 3712.9 1190.57 3733.96 1182.67 3733.89 1182.7 3754.05 1174.73 3753.97 1174.76 3773.22 1166.71 3773.13 1166.75 3791.44 1158.63 3791.34 1158.67 3808.7 1150.48 3808.59 1150.53 3824.97 1142.28 3824.86 1142.34 3840.24 1134.03 3840.12 1134.1 3854.49 1125.73 3854.35 1125.82 3867.68 1117.4 3867.53 1117.5 3879.81 1109.03 3879.64 1109.15 3890.84 1100.64 3890.66 1100.79 3900.77 1092.25 3900.56 1092.43 3909.56 1083.85 3909.34 1084.08 3917.2 1075.46 3916.96 1075.74 3923.67 1067.11 3923.43 1067.45 3928.96 1058.79 3928.72 1059.21 3933.06 1050.53 3932.84 1051.03 3935.96 1042.35 3935.8 1042.92 3937.69 1034.23 3937.59 1034.87 3938.23 1026.17ZM456.269 1060.97 463.5 1031.08 483.068 1054.8Z" fill="#BFBFBF" fill-rule="nonzero" fill-opacity="1"/><text fill="#000000" fill-opacity="1" font-family="PingFang SC,PingFang SC_MSFontService,sans-serif" font-style="normal" font-variant="normal" font-weight="600" font-stretch="normal" font-size="55" text-anchor="start" direction="ltr" writing-mode="lr-tb" unicode-bidi="normal" text-decoration="none" transform="matrix(1 0 0 1 2048.05 1495)">git</text><text fill="#000000" fill-opacity="1" font-family="PingFang SC,PingFang SC_MSFontService,sans-serif" font-style="normal" font-variant="normal" font-weight="600" font-stretch="normal" font-size="55" text-anchor="start" direction="ltr" writing-mode="lr-tb" unicode-bidi="normal" text-decoration="none" transform="matrix(1 0 0 1 2134.56 1495)">pull/rebase</text><text fill="#000000" fill-opacity="1" font-family="PingFang SC,PingFang SC_MSFontService,sans-serif" font-style="normal" font-variant="normal" font-weight="600" font-stretch="normal" font-size="55" text-anchor="start" direction="ltr" writing-mode="lr-tb" unicode-bidi="normal" text-decoration="none" transform="matrix(1 0 0 1 2115.66 1561)">拉取</text><text fill="#000000" fill-opacity="1" font-family="PingFang SC,PingFang SC_MSFontService,sans-serif" font-style="normal" font-variant="normal" font-weight="600" font-stretch="normal" font-size="55" text-anchor="start" direction="ltr" writing-mode="lr-tb" unicode-bidi="normal" text-decoration="none" transform="matrix(1 0 0 1 2225.66 1561)">/</text><text fill="#000000" fill-opacity="1" font-family="PingFang SC,PingFang SC_MSFontService,sans-serif" font-style="normal" font-variant="normal" font-weight="600" font-stretch="normal" font-size="55" text-anchor="start" direction="ltr" writing-mode="lr-tb" unicode-bidi="normal" text-decoration="none" transform="matrix(1 0 0 1 2253.16 1561)">变基</text></g></svg>